<svg xmlns="http://www.w3.org/2000/svg" fill="none" viewBox="0 0 18 22"><path stroke="#B2FFB5" stroke-linecap="round" stroke-linejoin="round" d="M2.143 13A7.8 7.8 0 0 1 1 8.919C1 4.545 4.582 1 9 1s8 3.545 8 7.919A7.799 7.799 0 0 1 15.857 13M12 18l-.13.647c-.14.707-.211 1.06-.37 1.34a2 2 0 0 1-1.113.912C10.082 21 9.72 21 9 21s-1.082 0-1.387-.1a2 2 0 0 1-1.113-.913c-.159-.28-.23-.633-.37-1.34L6 18m-1.617-1.902c-.092-.276-.138-.415-.133-.527a.6.6 0 0 1 .382-.53c.104-.041.25-.041.54-.041h7.656c.291 0 .436 0 .54.04a.6.6 0 0 1 .382.531c.005.112-.041.25-.133.527-.17.511-.255.767-.386.974a2 2 0 0 1-1.2.869c-.238.059-.506.059-1.043.059H7.012c-.537 0-.806 0-1.043-.06a2 2 0 0 1-1.2-.868c-.131-.207-.216-.463-.386-.974Z"/><path stroke="#B2FFB5" stroke-linecap="round" stroke-linejoin="round" d="M9.552 5.5 8.031 7.195a.4.4 0 0 0 .226.66l1.488.271a.4.4 0 0 1 .195.692L8.052 10.5"/></svg>