<svg xmlns="http://www.w3.org/2000/svg" fill="none" viewBox="0 0 24 24"><path fill="#fff" fill-opacity=".05" stroke="#fff" stroke-width="1.2" d="M2 12c0-3.771 0-5.657 1.172-6.828C4.344 4.001 6.229 4 10 4h4c3.771 0 5.657 0 6.828 1.172C21.999 6.344 22 8.229 22 12v2c0 3.771 0 5.657-1.172 6.828C19.656 21.999 17.771 22 14 22h-4c-3.771 0-5.657 0-6.828-1.172C2.001 19.656 2 17.771 2 14v-2Z"/><path stroke="#fff" stroke-linecap="round" stroke-width="1.2" d="M7 4V2.5M17 4V2.5M2.5 9h19"/><path fill="#fff" d="M18 17a1 1 0 1 1-2 0 1 1 0 0 1 2 0Zm0-4a1 1 0 1 1-2 0 1 1 0 0 1 2 0Zm-5 4a1 1 0 1 1-2 0 1 1 0 0 1 2 0Zm0-4a1 1 0 1 1-2 0 1 1 0 0 1 2 0Zm-5 4a1 1 0 1 1-2 0 1 1 0 0 1 2 0Zm0-4a1 1 0 1 1-2 0 1 1 0 0 1 2 0Z"/></svg>