<svg xmlns="http://www.w3.org/2000/svg" fill="none" viewBox="0 0 25 24">
  <path fill="#fff" fill-opacity=".05" stroke="#fff" stroke-width="1.2" d="M2.5 12c0-3.771 0-5.657 1.172-6.828C4.844 4.001 6.729 4 10.5 4h4c3.771 0 5.657 0 6.828 1.172C22.499 6.344 22.5 8.229 22.5 12v2c0 3.771 0 5.657-1.172 6.828C20.156 21.999 18.271 22 14.5 22h-4c-3.771 0-5.657 0-6.828-1.172C2.501 19.656 2.5 17.771 2.5 14v-2Z"/>
  <path stroke="#fff" stroke-linecap="round" stroke-width="1.2" d="M7.5 4V2.5m10 1.5V2.5M3 9h19"/>
  <path fill="#fff" d="M18.5 17a1 1 0 1 1-2 0 1 1 0 0 1 2 0Zm0-4a1 1 0 1 1-2 0 1 1 0 0 1 2 0Zm-5 4a1 1 0 1 1-2 0 1 1 0 0 1 2 0Zm0-4a1 1 0 1 1-2 0 1 1 0 0 1 2 0Zm-5 4a1 1 0 1 1-2 0 1 1 0 0 1 2 0Zm0-4a1 1 0 1 1-2 0 1 1 0 0 1 2 0Z"/>
</svg>