<svg xmlns="http://www.w3.org/2000/svg" fill="none" viewBox="0 0 20 22"><path stroke="#DB2A4D" stroke-linecap="round" stroke-linejoin="round" stroke-width="1.1" d="M10 21c-4.97 0-9-2.582-9-7v-.088C1 11.794 2.338 10.1 4.375 9c1.949-1.052 3.101-2.99 2.813-5l-.563-3 2.086.795c3.757 1.43 6.886 3.912 8.914 7.066A8.5 8.5 0 0 1 19 13.464V14c0 1.562-.504 2.895-1.375 3.965"/><path stroke="#DB2A4D" stroke-linecap="round" stroke-linejoin="round" stroke-width="1.1" d="M10 21c-1.657 0-3-1.433-3-3.2 0-1.4 1.016-2.521 1.91-3.548L10 13l1.09 1.252C11.984 15.28 13 16.4 13 17.8c0 1.767-1.343 3.2-3 3.2Z"/></svg>