<svg xmlns="http://www.w3.org/2000/svg" fill="none" viewBox="0 0 24 24">
  <path fill="#fff" d="M12 0c6.627 0 12 5.373 12 12s-5.373 12-12 12S0 18.627 0 12 5.373 0 12 0Zm2.675 5a.913.913 0 0 0-.671.307.88.88 0 0 0-.211.697c-.577-.086-1.18-.13-1.795-.13-.6 0-1.198.044-1.791.129C10.284 5.486 9.862 5 9.325 5c-.827 0-1.73.361-2.475.667-1.123.462-1.754 1.43-2.244 2.494-.794 1.727-1.345 4.03-1.536 5.779-.09.832-.113 1.667.051 2.229.175.6.773 1.025 1.353 1.36l.286.159.827.442c.355.183.714.355 1.072.53l.485.236a.908.908 0 0 0 .983-.122.878.878 0 0 0 .305-.6.859.859 0 0 0-.216-.634.891.891 0 0 0-.276-.209l-.706-.34.517-.532c1.239.5 2.697.78 4.247.78 1.55 0 3.01-.282 4.248-.78l.517.532-.704.341a.89.89 0 0 0-.467.505.858.858 0 0 0 .261.954.898.898 0 0 0 .664.205.903.903 0 0 0 .338-.1l.515-.25.639-.311.465-.236c.157-.082.314-.165.468-.248l.297-.163.287-.16c.58-.334 1.178-.759 1.354-1.36.163-.561.14-1.397.05-2.228-.191-1.75-.743-4.052-1.537-5.779-.49-1.064-1.12-2.032-2.244-2.494l-.47-.188C16.04 5.228 15.339 5 14.676 5Zm-5.573 5.683c.413 0 .81.16 1.103.448a1.514 1.514 0 0 1 0 2.163c-.292.287-.69.448-1.103.448-.414 0-.81-.161-1.103-.448a1.515 1.515 0 0 1-.457-1.081c0-.406.165-.795.457-1.082a1.575 1.575 0 0 1 1.103-.448Zm5.793 0c.413 0 .81.16 1.103.448a1.512 1.512 0 0 1 0 2.162 1.575 1.575 0 0 1-2.206 0 1.515 1.515 0 0 1-.457-1.08c0-.406.165-.795.457-1.082a1.575 1.575 0 0 1 1.103-.448Z"/>
</svg>