<svg xmlns="http://www.w3.org/2000/svg" width="22" height="22" fill="none">
  <path fill="#fff" fill-opacity=".05"
    d="M15 21.027v-2.87a3.37 3.37 0 0 0-.94-2.61c3.14-.35 6.44-1.54 6.44-7a5.44 5.44 0 0 0-1.5-3.75 5.07 5.07 0 0 0-.09-3.77S17.73.677 15 2.507a13.4 13.4 0 0 0-7 0c-2.73-1.83-3.91-1.48-3.91-1.48A5.07 5.07 0 0 0 4 4.797a5.44 5.44 0 0 0-1.5 3.78c0 5.42 3.3 6.61 6.44 7a3.37 3.37 0 0 0-.94 2.58v2.87" />
  <path stroke="#fff" stroke-linecap="round" stroke-linejoin="round" stroke-width="1.3"
    d="M15 21.027v-2.87a3.37 3.37 0 0 0-.94-2.61c3.14-.35 6.44-1.54 6.44-7a5.44 5.44 0 0 0-1.5-3.75 5.07 5.07 0 0 0-.09-3.77S17.73.677 15 2.507a13.4 13.4 0 0 0-7 0c-2.73-1.83-3.91-1.48-3.91-1.48A5.07 5.07 0 0 0 4 4.797a5.44 5.44 0 0 0-1.5 3.78c0 5.42 3.3 6.61 6.44 7a3.37 3.37 0 0 0-.94 2.58v2.87h7Z" />
  <path stroke="#fff" stroke-linecap="round" stroke-linejoin="round" stroke-width="1.3"
    d="M8 19.027c-3 .973-5.5 0-7-3" />
</svg>