<svg xmlns="http://www.w3.org/2000/svg" fill="none" viewBox="0 0 24 24">
  <g clip-path="url(#a)">
    <path fill="#fff" d="M12 0c-1.576 0-3.136.318-4.592.936a11.985 11.985 0 0 0-3.893 2.666C1.265 5.908 0 9.036 0 12.298c0 5.436 3.444 10.047 8.208 11.683.6.098.792-.283.792-.615v-2.078c-3.324.738-4.032-1.648-4.032-1.648-.552-1.427-1.332-1.808-1.332-1.808-1.092-.762.084-.738.084-.738 1.2.086 1.836 1.267 1.836 1.267 1.044 1.87 2.808 1.316 3.492 1.02.108-.799.42-1.34.756-1.647-2.664-.308-5.46-1.366-5.46-6.051 0-1.365.456-2.46 1.236-3.333-.12-.307-.54-1.586.12-3.246 0 0 1.008-.332 3.3 1.254a11.05 11.05 0 0 1 3-.406c1.02 0 2.052.135 3 .406 2.292-1.586 3.3-1.254 3.3-1.254.66 1.66.24 2.939.12 3.246.78.873 1.236 1.968 1.236 3.333 0 4.698-2.808 5.73-5.484 6.038.432.381.828 1.132.828 2.275v3.37c0 .332.192.726.804.615C20.568 22.333 24 17.734 24 12.298c0-1.615-.31-3.214-.913-4.706a12.324 12.324 0 0 0-2.602-3.99A11.985 11.985 0 0 0 16.592.936 11.748 11.748 0 0 0 12 0Z"/>
  </g>
  <defs>
    <clipPath id="a">
      <path fill="#fff" d="M0 0h24v24H0z"/>
    </clipPath>
  </defs>
</svg>