<svg xmlns="http://www.w3.org/2000/svg" fill="none" viewBox="0 0 188 171"><path fill="#fff" fill-opacity=".02" d="M1 58a6 6 0 0 1 6-6h77a6 6 0 0 1 6 6v54a6 6 0 0 1-6 6H7a6 6 0 0 1-6-6V58Z"/><path fill="#4D4D4D" d="M93 170.5a8.5 8.5 0 0 0 8.5-8.5v-20.104a7.5 7.5 0 0 1 7.5-7.5h37a8.5 8.5 0 0 0 8.5-8.5V119h-1v6.896a7.5 7.5 0 0 1-7.5 7.5h-37a8.5 8.5 0 0 0-8.5 8.5V162a7.5 7.5 0 0 1-7.5 7.5H47.5v1H93Z"/><path fill="#fff" fill-opacity=".02" d="M98 58a6 6 0 0 1 6-6h77a6 6 0 0 1 6 6v54a6 6 0 0 1-6 6h-77a6 6 0 0 1-6-6V58Z"/><path fill="#4D4D4D" fill-rule="evenodd" d="M181 51a7 7 0 0 1 7 7v54a7 7 0 0 1-7 7h-77a7 7 0 0 1-7-7V58a7 7 0 0 1 7-7h77Zm-77 1-.309.008A6 6 0 0 0 98 58v54l.008.309a6 6 0 0 0 5.683 5.683L104 118h77a6 6 0 0 0 6-6V58a6 6 0 0 0-6-6h-77Z" clip-rule="evenodd"/><path fill="#fff" fill-opacity=".02" d="M116 67a3 3 0 1 1-6 0 3 3 0 0 1 6 0ZM126 67a3 3 0 1 1-6 0 3 3 0 0 1 6 0Z"/><path fill="#4D4D4D" fill-rule="evenodd" d="M84 51a7 7 0 0 1 7 7v54a7 7 0 0 1-7 7H7a7 7 0 0 1-7-7V58a7 7 0 0 1 7-7h77ZM7 52l-.309.008A6 6 0 0 0 1 58v54l.008.309a6 6 0 0 0 5.683 5.683L7 118h77a6 6 0 0 0 6-6V58a6 6 0 0 0-6-6H7Z" clip-rule="evenodd"/><path fill="#fff" fill-opacity=".02" d="M78 89c0-1.657-.992-3-2.216-3H15.216C13.992 86 13 87.343 13 89s.992 3 2.216 3h60.568C77.008 92 78 90.657 78 89ZM78 103c0-1.657-.992-3-2.216-3H15.216c-1.224 0-2.216 1.343-2.216 3s.992 3 2.216 3h60.568c1.224 0 2.216-1.343 2.216-3ZM174 89c0-1.657-.992-3-2.216-3h-60.568c-1.224 0-2.216 1.343-2.216 3s.992 3 2.216 3h60.568c1.224 0 2.216-1.343 2.216-3ZM174 103c0-1.657-.992-3-2.216-3h-60.568c-1.224 0-2.216 1.343-2.216 3s.992 3 2.216 3h60.568c1.224 0 2.216-1.343 2.216-3Z"/><path fill="#4D4D4D" d="M92.5 0a8.5 8.5 0 0 1 8.5 8.5v20.104a7.5 7.5 0 0 0 7.5 7.5h37a8.5 8.5 0 0 1 8.5 8.5V51.5h-1v-6.897a7.5 7.5 0 0 0-7.5-7.5h-37a8.5 8.5 0 0 1-8.5-8.5V8.5A7.5 7.5 0 0 0 92.5 1H47V0h45.5Z"/></svg>