<svg xmlns="http://www.w3.org/2000/svg" width="24" height="24" fill="none">
  <path fill="#fff" fill-opacity=".05" stroke="#fff" stroke-width="1.2"
    d="M12.009 1.18c.466.003.922.142 1.311.398l.015.01.015.009 7.53 4.35.015.009.016.008c.086.043.136.072.18.106l.012.01a2.401 2.401 0 0 1 .953 1.6l.004.025 1.315 7.177h.001a2.4 2.4 0 0 1-1.176 2.416l-9 5.199a2.401 2.401 0 0 1-2.4 0h-.001l-9-5.2-.15-.095a2.4 2.4 0 0 1-1.044-2.143l.019-.177L1.94 7.705l.002-.012.001-.01c.08-.563.36-1.08.785-1.457h-.001c.12-.106.252-.198.391-.278l.002-.002 7.55-4.37.013-.007.01-.007c.393-.251.85-.384 1.316-.381Zm2.28 4.26-7.7 1.59c-1.014.197-1.124 1.487-.326 1.962v.001l.008.004 5.6 3.23.004.002c.237.134.525.186.808.108.289-.08.52-.283.654-.552l.006-.013.007-.014 1.58-3.6v-.002l.53-1.22h-.001a1.093 1.093 0 0 0-.105-1.086 1.04 1.04 0 0 0-1.065-.41Z" />
</svg>