<svg xmlns="http://www.w3.org/2000/svg" fill="none" viewBox="0 0 179 148"><path fill="#fff" fill-opacity=".02" d="M121 7a6 6 0 0 0-6-6H7a6 6 0 0 0-6 6v26a6 6 0 0 0 6 6h108a6 6 0 0 0 6-6V7ZM121 61a6 6 0 0 0-6-6H7a6 6 0 0 0-6 6v26a6 6 0 0 0 6 6h108a6 6 0 0 0 6-6V61ZM121 115a6 6 0 0 0-6-6H7a6 6 0 0 0-6 6v26a6 6 0 0 0 6 6h108a6 6 0 0 0 6-6v-26Z"/><path fill="#fff" fill-opacity=".05" fill-rule="evenodd" d="M115 0a7 7 0 0 1 7 7v12h15.95a8.5 8.5 0 0 1 8.5 8.5v39a7.5 7.5 0 0 0 7.5 7.5H179v1h-25.05a7.5 7.5 0 0 0-7.5 7.5V121a8.5 8.5 0 0 1-8.5 8.5H122V141a7 7 0 0 1-7 7H7a7 7 0 0 1-7-7v-26a7 7 0 0 1 7-7h108a7 7 0 0 1 7 7v13.5h15.95a7.5 7.5 0 0 0 7.5-7.5V82.5a8.497 8.497 0 0 1 4.248-7.361l.249-.139H122v12a7 7 0 0 1-7 7H7a7 7 0 0 1-7-7V61a7 7 0 0 1 7-7h108a7 7 0 0 1 7 7v13h27.95a8.498 8.498 0 0 1-4.5-7.5v-39a7.5 7.5 0 0 0-7.5-7.5H122v13a7 7 0 0 1-7 7H7a7 7 0 0 1-7-7V7a7 7 0 0 1 7-7h108ZM6.691 109.008A6 6 0 0 0 1 115v26a6 6 0 0 0 5.691 5.992L7 147h108a6 6 0 0 0 6-6v-26a6 6 0 0 0-6-6H7l-.309.008Zm0-54A6 6 0 0 0 1 61v26a6 6 0 0 0 5.691 5.992L7 93h108a6 6 0 0 0 6-6V61a6 6 0 0 0-6-6H7l-.309.008Zm0-54A6 6 0 0 0 1 7v26a6 6 0 0 0 5.691 5.992L7 39h108a6 6 0 0 0 6-6V7a6 6 0 0 0-6-6H7l-.309.008Z" clip-rule="evenodd"/><path fill="#fff" fill-opacity=".02" d="M108 20c0-1.657-1.419-3-3.17-3H18.17C16.42 17 15 18.343 15 20s1.42 3 3.17 3h86.66c1.751 0 3.17-1.343 3.17-3ZM108 74c0-1.657-1.419-3-3.17-3H18.17C16.42 71 15 72.343 15 74s1.42 3 3.17 3h86.66c1.751 0 3.17-1.343 3.17-3ZM108 129c0-1.657-1.419-3-3.17-3H18.17c-1.75 0-3.17 1.343-3.17 3s1.42 3 3.17 3h86.66c1.751 0 3.17-1.343 3.17-3Z"/></svg>