<svg xmlns="http://www.w3.org/2000/svg" preserveAspectRatio="xMidYMid meet" style="width:100%;height:100%;max-width:100%;max-height:100%;object-fit:contain;" id="svg" version="1.1" viewBox="344.96 317.14 573.39 576.32" fill="white"><path d="M603.000 318.128 C 589.866 319.461,567.865 323.882,553.304 328.115 C 484.648 348.076,424.271 394.483,387.544 455.521 C 335.999 541.188,330.973 643.085,373.942 731.286 C 396.752 778.108,429.889 816.058,473.263 845.033 C 496.773 860.738,529.519 876.104,554.181 883.002 C 583.554 891.218,600.367 893.450,633.000 893.465 C 661.798 893.479,670.973 892.529,695.000 887.049 C 794.717 864.305,873.914 791.423,905.318 693.500 C 914.372 665.267,918.241 640.014,918.340 608.500 C 918.460 570.665,911.420 533.630,897.553 499.129 C 872.643 437.159,828.611 386.420,770.898 353.181 C 740.074 335.429,701.230 322.729,665.000 318.557 C 650.384 316.874,617.597 316.647,603.000 318.128 M653.371 352.066 C 660.235 352.653,667.063 353.457,668.546 353.854 L 671.241 354.575 666.871 357.453 C 658.174 363.181,640.256 377.039,629.000 386.743 C 615.308 398.547,600.001 414.437,584.187 433.263 C 577.829 440.833,572.301 446.683,571.905 446.263 C 571.139 445.453,567.941 429.808,565.821 416.500 C 564.215 406.419,564.079 362.521,565.649 360.951 C 568.019 358.581,598.672 352.935,616.000 351.676 C 626.513 350.913,641.730 351.072,653.371 352.066 M725.227 369.364 C 737.895 374.137,768.849 390.704,771.846 394.314 C 772.736 395.387,771.406 396.323,765.230 398.972 C 749.990 405.509,727.393 418.558,711.000 430.289 C 680.518 452.102,646.543 485.563,619.149 520.750 C 613.476 528.038,608.478 534.000,608.043 534.000 C 606.166 534.000,586.000 491.865,586.000 487.944 C 586.000 483.437,609.519 454.500,630.950 432.637 C 655.019 408.083,677.615 390.137,702.500 375.812 C 709.426 371.825,718.019 367.182,718.727 367.044 C 718.852 367.020,721.777 368.064,725.227 369.364 M529.003 384.750 C 529.027 457.621,560.828 538.611,618.786 613.405 L 627.236 624.309 620.177 623.653 C 607.028 622.431,574.004 615.094,551.035 608.291 L 541.569 605.488 536.707 597.630 C 528.957 585.104,513.284 552.901,506.469 535.500 C 489.582 492.378,482.037 455.758,482.011 416.780 L 482.000 401.061 489.447 396.036 C 501.097 388.174,525.926 374.088,528.250 374.021 C 528.663 374.010,529.002 378.837,529.003 384.750 M808.002 423.655 C 816.517 430.820,845.521 467.909,843.834 469.476 C 843.650 469.646,838.775 471.237,833.000 473.010 C 800.599 482.959,772.112 497.537,744.500 518.299 C 719.062 537.427,692.325 564.788,669.792 594.750 C 664.312 602.038,659.437 608.000,658.959 608.000 C 657.565 608.000,628.000 569.361,628.000 567.540 C 628.000 565.760,648.963 537.723,660.651 523.870 C 692.164 486.519,732.516 453.717,769.391 435.475 C 781.795 429.338,801.259 421.266,804.173 421.050 C 804.544 421.022,806.267 422.195,808.002 423.655 M448.391 443.219 C 451.251 482.087,463.069 525.115,482.956 569.068 C 486.280 576.414,489.000 582.755,489.000 583.158 C 489.000 585.314,465.840 572.817,447.000 560.495 C 428.160 548.173,398.830 524.373,396.145 519.228 C 393.532 514.222,417.759 467.906,432.880 449.000 C 440.717 439.201,446.297 433.065,446.985 433.491 C 447.383 433.737,448.016 438.114,448.391 443.219 M864.342 508.250 C 868.773 518.730,872.939 531.804,876.532 546.500 C 880.134 561.238,883.814 586.435,882.764 589.173 C 882.410 590.095,876.444 593.037,868.823 596.047 C 827.451 612.386,784.452 623.021,742.000 627.413 C 722.441 629.437,689.461 630.555,688.638 629.223 C 687.055 626.662,713.694 593.329,732.015 574.946 C 767.663 539.178,805.092 516.638,849.000 504.497 C 861.505 501.039,861.269 500.982,864.342 508.250 M396.721 566.022 C 462.412 621.007,556.725 655.734,660.000 662.965 C 678.867 664.286,717.986 664.281,735.050 662.955 C 779.982 659.464,833.114 647.425,872.375 631.837 C 877.806 629.681,882.480 628.146,882.760 628.427 C 883.679 629.346,880.147 653.744,877.480 664.899 L 874.872 675.807 862.186 680.322 C 812.765 697.911,764.955 708.751,711.000 714.600 C 691.455 716.718,634.641 717.601,615.300 716.087 C 547.181 710.754,491.688 695.125,443.594 667.726 C 428.275 658.999,403.459 642.415,390.500 632.245 L 380.500 624.397 380.190 608.949 C 379.793 589.234,382.845 557.000,385.108 557.000 C 385.566 557.000,390.792 561.060,396.721 566.022 M402.271 682.345 C 417.257 692.572,434.557 702.504,450.563 710.069 C 462.587 715.752,462.652 715.801,464.472 720.639 C 467.390 728.397,481.396 755.954,488.662 768.234 C 501.270 789.539,518.304 813.460,534.422 832.494 C 538.611 837.440,541.644 841.619,541.162 841.779 C 539.361 842.380,515.783 831.051,503.169 823.525 C 485.395 812.920,471.211 802.063,456.292 787.642 C 432.683 764.821,414.603 739.066,401.005 708.885 C 394.807 695.130,387.803 674.000,389.442 674.000 C 389.772 674.000,395.545 677.755,402.271 682.345 M858.000 719.584 C 858.000 722.659,840.058 751.222,830.181 763.871 C 822.506 773.701,808.235 789.000,806.742 789.000 C 806.170 789.000,799.147 784.670,791.135 779.378 C 770.132 765.503,744.157 745.003,747.576 744.999 C 748.084 744.998,756.375 743.638,766.000 741.975 C 786.498 738.434,821.629 729.901,841.500 723.637 C 855.908 719.095,858.000 718.581,858.000 719.584 M527.000 737.404 C 534.425 739.251,547.250 741.960,555.500 743.425 C 563.750 744.890,571.681 746.317,573.124 746.596 C 575.093 746.977,578.498 750.773,586.760 761.802 C 610.099 792.956,638.307 823.075,665.505 845.881 C 671.002 850.490,675.633 854.603,675.796 855.020 C 676.732 857.414,639.547 860.481,621.363 859.509 L 608.227 858.807 596.863 848.563 C 571.162 825.392,543.166 791.381,523.556 759.506 C 516.974 748.807,509.000 734.523,509.000 733.430 C 509.000 733.065,510.012 733.055,511.250 733.407 C 512.487 733.759,519.575 735.558,527.000 737.404 M710.372 758.805 C 726.944 774.718,745.308 789.634,766.000 803.988 C 779.272 813.194,778.776 812.695,776.446 814.504 C 764.685 823.640,726.626 843.038,720.578 842.980 C 715.189 842.928,682.283 816.253,658.923 793.000 C 643.287 777.437,623.043 754.754,623.012 752.764 C 623.005 752.360,637.063 751.903,654.250 751.749 C 671.438 751.596,689.267 751.365,693.872 751.235 L 702.244 751.000 710.372 758.805 " stroke="none" fill-rule="evenodd"/></svg>
